<?xml version="1.0" encoding="UTF-8" standalone="no"?>
<svg
   version="1.1"
   id="Layer_1"
   x="0px"
   y="0px"
   width="100%"
   viewBox="0 0 256 256"
   enable-background="new 0 0 256 256"
   xml:space="preserve"
   sodipodi:docname="icon.svg"
   inkscape:version="1.2.2 (b0a8486541, 2022-12-01)"
   xmlns:inkscape="http://www.inkscape.org/namespaces/inkscape"
   xmlns:sodipodi="http://sodipodi.sourceforge.net/DTD/sodipodi-0.dtd"
   xmlns="http://www.w3.org/2000/svg"
   xmlns:svg="http://www.w3.org/2000/svg"><defs
   id="defs290" /><sodipodi:namedview
   id="namedview288"
   pagecolor="#ffffff"
   bordercolor="#111111"
   borderopacity="1"
   inkscape:showpageshadow="0"
   inkscape:pageopacity="0"
   inkscape:pagecheckerboard="1"
   inkscape:deskcolor="#d1d1d1"
   showgrid="false"
   inkscape:zoom="4.0117188"
   inkscape:cx="128.12463"
   inkscape:cy="127.87537"
   inkscape:window-width="2560"
   inkscape:window-height="1371"
   inkscape:window-x="0"
   inkscape:window-y="0"
   inkscape:window-maximized="1"
   inkscape:current-layer="Layer_1" />
<path
   fill="#000000"
   opacity="1"
   stroke="none"
   d="m 77.519961,246.74294 -25.92803,-14.2159 C 23.98932,204.42212 28.683987,213.16134 8.6995184,172.38773 5.1412148,154.39912 0.03567875,118.03794 6.6593689,94.38803 13.283059,70.738116 33.308096,44.176378 50.800335,29.617216 68.292574,15.058055 96.810019,6.653927 107.35483,5.1612705 c 10.54481,-1.4926564 49.74315,-2.828259 69.32406,6.3019845 19.58092,9.130244 33.37416,17.527774 47.48292,36.691449 14.10877,19.163675 21.26228,26.090016 26.66289,45.131775 5.40062,19.041761 7.12638,43.323821 1.2678,66.325401 -5.85857,23.00158 -34.20066,64.83797 -37.66389,66.10088 -3.46323,1.2629 -30.53362,28.59785 -65.32022,28.19328 -0.4848,-1.48314 3.85931,0.12768 4.31357,-0.93213 5.3365,0.0188 10.20254,0.0188 15.52954,0.0188 0,-1.56169 0,-2.79961 0.4651,-4.01881 4.00496,0.0187 7.54483,0.0187 11.54228,0.0187 0,-1.56495 0,-2.79765 0.44812,-4.01471 2.66815,0.0156 4.88817,0.0156 7.56211,0.0156 0,-1.56198 0,-2.79472 0.44976,-4.01336 7.40453,0.0257 7.40453,0.0257 6.96801,-3.68572 h -7.3384 c 0,1.4462 0,2.59839 -0.44882,3.73191 -2.67129,-0.0187 -4.89375,-0.0187 -7.56148,-0.0187 0,1.58055 0,2.80722 -0.46406,4.01659 -4.00125,-0.0173 -7.53847,-0.0173 -11.54323,-0.0173 0,1.56358 0,2.79535 -0.46907,4.01291 -5.44551,-0.0142 -10.42194,-0.0142 -15.53093,-0.0142 0,1.7612 0,2.89484 -0.47041,4.01424 -16.1798,-0.002 -30.73339,3.3508 -46.42731,2.92115 0.28463,-2.5647 -1.37777,-7.1042 -3.94945,-6.98973 -4.399893,0.19585 -8.813788,0.0769 -13.206343,-0.34961 0.270744,-2.53025 -0.181519,-3.8159 -2.76358,-3.64476 -3.072319,0.20366 -6.166916,0.0713 -9.236405,-0.34913 -0.89096,-1.49094 -1.616707,-3.10533 -2.747146,-3.47196 -1.597954,-0.51828 -3.494889,-0.11471 -5.250328,-0.53949 0.396316,-5.8388 -3.723603,-3.05594 -5.881222,-3.41224 -0.658722,-0.10878 -1.655392,1.82887 -2.962071,3.38162 1.989189,0.28461 2.468712,0.40935 2.948922,0.41208 1.986434,0.0113 3.973075,-0.0144 5.941116,0.40771 0.887955,1.49365 1.613472,3.1124 2.744331,3.47826 1.599892,0.51762 3.499024,0.11029 5.253395,0.53761 -0.274788,2.53359 0.185402,3.81218 2.764336,3.64191 3.072555,-0.20287 6.167343,-0.0691 9.235649,0.35966 -0.288696,2.56819 0.226135,3.75962 2.794426,3.64592 4.400131,-0.19478 20.1326,0.50377 24.52367,0.89518 -0.0194,1.48043 -2.99837,-0.63542 -7.06496,1.60124 m 75.7366,-230.559404 c 0,0 0.003,0.06623 -0.0119,-0.802763 -0.91132,-1.060358 -1.64008,-2.671335 -2.77787,-3.048576 -1.59967,-0.530379 -3.50296,-0.144984 -5.21019,-0.148659 0,0 0.003,0.06622 -0.0121,-0.814661 0.23638,-2.080353 -0.19516,-3.381065 -2.78866,-3.216745 -3.07675,0.19494 -6.17598,0.035 -9.19927,0.03141 0,0 0.003,0.06621 -0.0121,-0.817589 0.24965,-2.111551 -0.23397,-3.327234 -2.8171,-3.219129 -4.40511,0.184359 -8.82393,0.04028 -13.17081,0.03672 0,0 0.003,0.06621 -0.0121,-0.818074 C 148.37614,11.116878 147.7632,9.158257 147.12248,9.14913 134.4776,8.969024 121.8295,9.015017 108.98329,9.015017 c 0,1.737006 0,2.887039 0.003,3.970856 0,0 0.0662,-0.0025 -0.87509,0.01138 H 93.194077 c -0.08083,1.554836 -0.145806,2.804838 -0.208191,3.988623 0,0 0.06621,-0.0025 -0.864388,0.01134 H 81.186035 c -0.07821,1.564043 -0.14048,2.809462 -0.200157,3.988652 0,0 0.06623,-0.0026 -0.832077,0.01129 h -7.170525 c 0,1.596995 0,2.825978 0.0026,3.988726 0,0 0.06624,-0.0026 -0.826515,0.01126 H 65.17041 c -0.06906,1.553183 -0.119812,2.694704 -0.840347,4.137087 -1.109921,1.344072 -2.219841,2.688147 -4.205078,3.894014 h -7.125138 c 0,1.530846 0,2.667988 -0.690982,4.123036 -2.653801,2.701023 -5.556878,5.203255 -7.905167,8.147915 -3.887062,4.874218 -11.099506,7.197067 -11.48354,14.811413 -0.0268,0.531528 -0.750705,1.027175 -1.148756,1.540813 -2.591035,3.34343 -6.662378,5.343307 -7.103965,10.606316 -0.269041,3.20652 -3.028305,6.231102 -4.767304,9.281372 -3.088903,5.41806 -7.240008,10.347755 -6.963287,17.189132 0.08914,2.203898 -0.307333,4.515088 -0.94578,6.637598 -0.725778,2.41283 -2.794554,4.64906 -2.852271,6.99714 -0.290671,11.82485 -0.11854,23.66115 -0.087541,35.4934 7.7e-4,0.29368 0.248595,0.58673 0.374396,0.86502 1.211038,0.25806 2.403962,0.51225 3.756745,0.80051 v 15.14 c 1.431202,0.30412 2.62935,0.55871 3.989781,0.84779 v 7.15938 c 1.425389,0.29092 2.629353,0.53666 3.990895,0.81456 v 7.20004 c 1.412998,0.27496 2.619398,0.50972 3.98434,0.77534 v 7.23543 c 1.407027,0.26097 2.614855,0.485 3.976334,0.73752 v 5.71895 c 10.320896,10.32446 19.804291,19.81113 29.896393,29.90671 h 5.505779 l 1.026856,3.98965 h 7.003067 c 0.330772,1.35739 0.65026,2.6685 1.010269,4.14591 h 7.09729 c 0.311172,1.44033 0.568756,2.63264 0.862671,3.99313 h 7.124145 c 0.30423,1.42967 0.558212,2.6232 0.847283,3.9816 H 104.6724 l 0.73504,3.63936 h 47.28967 c 0.26134,-1.37349 0.48905,-2.57032 0.74872,-3.93517 h 15.2495 c 0.26017,-1.41931 0.48153,-2.62691 0.73243,-3.99559 h 7.28038 c 0.24036,-1.39943 0.44797,-2.60817 0.68366,-3.9805 h 7.32364 c 0.22731,-1.39809 0.42393,-2.60751 0.64744,-3.98234 h 7.35833 c 0.21319,-1.38225 0.40101,-2.60007 0.6137,-3.97904 h 5.73012 c 10.34461,-10.32268 19.84499,-19.80293 30.11536,-30.05153 v -5.53746 c 1.42996,-0.30313 2.62981,-0.55748 3.98903,-0.84563 v -7.17469 c 1.41575,-0.28414 2.62414,-0.52664 3.98962,-0.80068 v -7.21246 c 1.40941,-0.26984 2.61615,-0.50089 3.98416,-0.7628 v -7.25617 c 1.39716,-0.24609 2.59619,-0.45727 3.96892,-0.69906 v -15.30814 c 1.40758,-0.23514 2.60623,-0.43536 3.88776,-0.64944 0,-12.48623 0.0219,-24.64219 -0.0384,-36.79776 -0.005,-1.05753 -0.21067,-2.61956 -0.90259,-3.08406 -3.76395,-2.52678 -3.43308,-6.32506 -2.97098,-9.841963 0.80031,-6.091011 -4.1134,-9.784278 -5.74486,-14.857544 -1.2687,-3.945274 -4.77287,-7.147872 -6.18718,-11.07534 -2.52176,-7.00293 -5.5424,-13.406448 -11.14692,-18.594471 -5.97208,-5.528278 -11.47031,-11.568443 -17.03722,-18.236488 -0.89923,-1.048981 -1.62448,-2.671902 -2.73924,-3.009808 -1.59496,-0.483463 -3.47469,-0.02751 -5.84653,-0.231174 -1.18414,-1.302553 -2.36827,-2.605105 -3.41421,-4.75936 -0.9061,-1.048887 -1.63271,-2.645309 -2.76136,-3.015306 -1.59875,-0.524101 -3.49399,-0.143774 -5.19629,-0.147421 M 201.02901,230.5548 c 1.55158,5.07708 5.162,1.29607 8.36225,2.48021 -1.53153,-6.11254 -5.20757,-3.81714 -8.36225,-2.48021 m -145.792976,-1.53824 -4.009001,0.30477 c 1.087281,6.21447 2.748019,2.7005 6.179671,3.96531 -0.607388,-1.99198 -0.939972,-3.08271 -2.17067,-4.27008 z"
   id="path163"
   sodipodi:nodetypes="ccczzzzzzzzccccccccccccccccccscscscscscscscsccccsccsccsccscccccccccccccccccsssssssssccccccccccccccccccccccccccccccccccccccccccccsssssscsccscccccccc" />
<path
   fill="#FF0000"
   opacity="1.000000"
   stroke="none"
   d=" M152.951553,252.955154   C152.967697,254.033722 152.983856,255.112289 153.000000,256.595428   C137.312439,257.000000 121.624878,257.000000 105.468658,257.000000   C105.002327,255.923035 105.004646,254.846085 105.003937,253.385086   C105.000893,253.001053 104.961952,253.041397 104.961952,253.041397   C120.671341,253.029449 136.380722,253.017517 152.541077,252.999756   C152.992035,252.993942 152.951553,252.955154 152.951553,252.955154  z"
   id="path165" />
<path
   fill="#FFFFFF"
   opacity="1.000000"
   stroke="none"
   d=" M192.833557,29.000305   C194.017700,30.302858 195.201828,31.605410 196.693024,33.460819   C197.804230,35.008656 198.443283,36.580460 199.449814,36.868610   C201.120071,37.346775 203.026566,36.999737 204.833557,37.000305   C210.538651,42.816990 216.036880,48.857155 222.008957,54.385433   C227.613480,59.573456 230.634125,65.976974 233.155884,72.979904   C234.570190,76.907372 238.074356,80.109970 239.343063,84.055244   C240.974518,89.128510 245.888229,92.821777 245.087921,98.912788   C244.625824,102.429695 244.294952,106.227966 248.058899,108.754753   C248.750824,109.219254 248.956253,110.781281 248.961487,111.838814   C249.021729,123.994377 248.999878,136.150345 248.999878,148.636566   C247.718353,148.850647 246.519699,149.050873 245.112122,149.286011   C245.112122,154.355469 245.112122,159.319046 245.112122,164.594147   C243.739395,164.835938 242.540359,165.047119 241.143204,165.293213   C241.143204,167.673096 241.143204,169.968002 241.143204,172.549377   C239.775192,172.811295 238.568451,173.042343 237.159042,173.312180   C237.159042,175.647598 237.159042,177.944016 237.159042,180.524643   C235.793564,180.798676 234.585175,181.041183 233.169418,181.325317   C233.169418,183.623383 233.169418,185.917938 233.169418,188.500015   C231.810196,188.788162 230.610352,189.042511 229.180389,189.345642   C229.180389,191.599243 229.180389,193.891754 229.180389,194.883102   C218.910019,205.131699 209.409637,214.611954 199.065033,224.934631   C198.242996,224.934631 195.943176,224.934631 193.334915,224.934631   C193.122223,226.313599 192.934402,227.531418 192.721207,228.913666   C190.259155,228.913666 187.962769,228.913666 185.362885,228.913666   C185.139374,230.288498 184.942749,231.497925 184.715439,232.896011   C182.281784,232.896011 179.985382,232.896011 177.391800,232.896011   C177.156113,234.268341 176.948502,235.477081 176.708145,236.876511   C174.303970,236.876511 172.007126,236.876511 169.427765,236.876511   C169.176865,238.245193 168.955505,239.452789 168.695328,240.872101   C163.674011,240.872101 158.709167,240.872101 153.445831,240.872101   C153.186157,242.236954 152.958450,243.433777 152.697113,244.807266   C137.027908,244.807266 121.401558,244.807266 105.407440,244.807266   C105.201363,243.786926 104.960014,242.591949 104.672401,241.167908   C99.725624,241.167908 94.763504,241.167908 89.497498,241.167908   C89.208427,239.809509 88.954445,238.615982 88.650215,237.186310   C86.413780,237.186310 84.121857,237.186310 81.526070,237.186310   C81.232155,235.825821 80.974571,234.633514 80.663399,233.193176   C78.436844,233.193176 76.147247,233.193176 73.566109,233.193176   C73.206100,231.715775 72.886612,230.404663 72.555840,229.047272   C70.195137,229.047272 68.039581,229.047272 65.552773,229.047272   C65.213615,227.729538 64.877739,226.424561 64.525917,225.057617   C62.219810,225.057617 60.066269,225.057617 59.020138,225.057617   C48.928036,214.962036 39.444641,205.475372 29.123745,195.150909   C29.123745,194.328323 29.123745,192.024078 29.123745,189.431961   C27.762266,189.179443 26.554438,188.955414 25.147411,188.694443   C25.147411,186.337692 25.147411,184.041199 25.147411,181.459015   C23.782469,181.193390 22.576069,180.958633 21.163071,180.683670   C21.163071,178.360550 21.163071,176.064667 21.163071,173.483627   C19.801529,173.205734 18.597565,172.959991 17.172176,172.669067   C17.172176,170.384995 17.172176,168.091125 17.172176,165.509689   C15.811745,165.220612 14.613597,164.966019 13.182395,164.661896   C13.182395,159.757492 13.182395,154.791946 13.182395,149.521896   C11.829612,149.233643 10.636688,148.979446 9.425650,148.721390   C9.299849,148.443100 9.052024,148.150055 9.051254,147.856369   C9.020255,136.024124 8.848124,124.187820 9.138795,112.362968   C9.196512,110.014893 11.265288,107.778656 11.991066,105.365829   C12.629513,103.243324 13.025990,100.932129 12.936846,98.728233   C12.660125,91.886856 16.811230,86.957161 19.900133,81.539101   C21.639132,78.488831 24.398396,75.464249 24.667437,72.257729   C25.109024,66.994720 29.180367,64.994843 31.771402,61.651413   C32.169453,61.137775 32.893356,60.642128 32.920158,60.110600   C33.304192,52.496254 40.516636,50.173405 44.403698,45.299187   C46.751987,42.354527 49.655064,39.852295 53.093346,37.067024   C56.182430,36.982773 58.487034,36.982773 61.000301,36.982773   C61.000301,35.467834 61.000301,34.317139 61.000301,33.166443   C62.110222,31.822369 63.220142,30.478294 65.106094,29.058548   C68.119736,28.982874 70.357338,28.982874 72.865845,28.982874   C72.936760,27.460114 72.994431,26.221712 73.052109,24.983309   C73.052109,24.983309 72.985870,24.985876 73.432205,24.995617   C76.116867,25.005358 78.355202,25.005358 80.864937,25.005358   C80.936340,23.470980 80.994225,22.227146 81.052109,20.983311   C81.052109,20.983311 80.985878,20.985865 81.447403,20.995564   C85.465141,21.005260 89.021339,21.005260 92.855736,21.005260   C92.930595,19.472012 92.991348,18.227669 93.052101,16.983326   C93.052101,16.983326 92.985886,16.985872 93.452583,16.995529   C98.909393,17.005186 103.899506,17.005186 109.052101,17.005186   C109.052101,15.262927 109.052101,14.123129 109.052101,12.983330   C109.052101,12.983330 108.985886,12.985873 109.453888,12.995514   C122.953499,13.020799 135.985107,13.036444 149.016708,13.052089   C149.016708,13.052089 149.014099,12.985883 149.004547,13.429516   C148.733200,15.961110 149.130936,17.183140 151.761612,17.060469   C156.170532,16.854879 160.597397,17.034546 165.016708,17.052090   C165.016708,17.052090 165.014114,16.985884 165.004532,17.428068   C164.747284,19.926317 165.087143,21.243883 167.733459,21.054848   C170.812241,20.834925 173.920975,21.034548 177.016708,21.052094   C177.016708,21.052094 177.014114,20.985878 177.004486,21.421892   C176.776138,23.855211 177.003403,25.345083 179.681793,25.040462   C181.436951,24.840841 183.236847,25.034557 185.016708,25.052107   C185.016708,25.052107 185.014114,24.985876 185.004471,25.419262   C185.774658,26.901094 186.371902,28.561089 187.375336,28.860720   C189.058563,29.363333 191.000488,28.999533 192.833557,29.000305  M193.008896,153.008926   C193.008896,153.008926 193.077942,153.040848 192.181320,153.016296   C189.474350,153.795670 184.501144,150.590927 185.008896,157.008926   C185.008896,157.008926 185.077942,157.040848 184.181320,157.016296   C181.474350,157.795670 176.501144,154.590927 177.008896,161.008926   C177.008896,161.008926 177.077942,161.040848 176.144531,161.015839   C173.674088,161.010956 171.189392,161.171417 168.736710,160.960312   C165.500168,160.681747 164.648178,162.248688 165.008896,165.008926   C165.008896,165.008926 165.077942,165.040848 164.133133,165.015671   C160.337952,165.010880 156.532516,165.176605 152.750717,164.949295   C149.515259,164.754837 148.644073,166.234863 149.008896,169.008926   C149.008896,169.008926 149.077942,169.040848 148.130417,169.015640   C136.651871,169.010376 125.173187,169.031708 113.694992,168.966064   C112.265121,168.957901 109.699387,168.727676 109.587952,168.196121   C108.619148,163.575119 105.096725,165.184921 102.420006,165.042084   C99.102264,164.865005 95.765053,165.075775 92.442635,164.950058   C91.389542,164.910202 89.536858,164.478760 89.444504,163.972260   C88.696335,159.869141 85.516090,161.513443 83.177887,160.945374   C78.079552,159.706711 71.558624,164.385147 67.783875,157.283554   C67.533539,156.812607 65.898361,157.019516 64.906570,157.012161   C62.245258,156.992401 59.583538,157.027481 56.991058,157.008850   C56.991058,157.008850 56.959152,157.077942 56.979988,156.263931   C55.740841,151.419998 51.538490,148.919144 44.175430,149.000427   C40.768288,145.593872 37.447601,142.093292 33.904255,138.834839   C32.758045,137.780792 31.027554,137.362106 29.153975,136.453873   C29.153975,139.965591 29.153975,142.261276 29.153975,144.731491   C30.484200,144.937851 31.694908,145.125656 33.068298,145.338699   C33.068298,147.947205 33.068298,150.247086 33.068298,151.154327   C36.629959,154.700211 39.388924,157.446945 42.962189,161.004364   C43.856113,161.004364 46.156063,161.004364 47.663479,161.004364   C50.042740,163.876633 51.908745,166.129303 54.247105,168.952209   C55.783043,168.952209 58.082188,168.952209 60.490005,168.952209   C60.875122,170.432281 61.214504,171.736572 61.558891,173.060120   C65.378563,173.060120 68.865456,173.060120 72.553314,173.060120   C72.887665,174.420059 73.208855,175.726440 73.570465,177.197235   C80.153595,177.197235 86.446960,177.197235 92.672813,177.197235   C92.979843,178.637512 93.234131,179.830353 93.438408,180.788605   C112.121635,180.788605 130.414764,180.788605 148.659943,180.788605   C148.959122,179.383362 149.213287,178.189529 149.502335,176.831863   C154.761978,176.831863 159.724976,176.831863 164.672424,176.831863   C164.959442,175.411743 165.201874,174.212219 165.477921,172.846390   C169.401108,172.846390 173.031845,172.846390 176.687592,172.846390   C176.957855,171.434708 177.187790,170.233688 177.449402,168.867157   C181.376770,168.867157 185.007126,168.867157 188.694458,168.867157   C188.955872,167.449738 189.178665,166.241730 189.429840,164.879761   C192.014908,164.879761 194.316467,164.879761 195.189636,164.879761   C202.726044,157.329803 209.446457,150.597290 216.987610,143.042557   C216.987610,142.171524 216.987610,139.869507 216.987610,138.635132   C221.276016,134.608047 224.916962,131.188980 228.774567,127.566444   C228.774567,125.865891 228.774567,123.584915 228.774567,120.945801   C226.123627,120.945801 223.692307,120.945801 221.260971,120.945801   C221.466141,120.569939 221.671326,120.194077 221.876495,119.818214   C220.370758,118.486244 218.865036,117.154274 216.837784,115.360970   C216.837784,113.910645 216.837784,111.610741 216.837784,109.310837   C216.547318,109.529213 216.256866,109.747597 215.966400,109.965973   C213.252289,107.171799 210.538162,104.377632 207.158676,100.898468   C206.000732,100.898468 203.700806,100.898468 202.323853,100.898468   C199.865448,98.023659 197.961197,95.796890 195.522079,92.944649   C194.076630,92.944649 191.780457,92.944649 189.257050,92.944649   C189.079468,91.573372 188.922272,90.359581 188.741486,88.963562   C184.765167,88.963562 181.135956,88.963562 177.221909,88.963562   C177.069916,87.593353 176.935547,86.382065 176.780334,84.982758   C170.123154,84.982758 163.828033,84.982758 157.182770,84.982758   C157.056854,83.608490 156.946198,82.400978 156.828735,81.118973   C138.149109,81.118973 119.856720,81.118973 101.176666,81.118973   C101.056282,82.388412 100.942734,83.585884 100.810654,84.978714   C95.512665,84.978714 90.549644,84.978714 85.526855,84.978714   C85.119690,86.469681 84.767509,87.759323 84.408752,89.073029   C80.581978,89.073029 77.097580,89.073029 73.489601,89.073029   C73.126350,90.440193 72.780739,91.740967 72.429375,93.063385   C68.610359,93.063385 65.123268,93.063385 61.461525,93.063385   C61.118557,94.417313 60.787727,95.723335 60.464325,97.000023   C58.961266,97.000023 57.794716,96.979729 56.629208,97.005814   C55.496288,97.031174 54.364429,97.104073 53.308727,97.152580   C53.026012,98.521645 52.996567,100.456551 52.541512,100.562439   C50.392975,101.062386 49.196651,101.472282 48.639023,104.246056   C48.263176,106.115608 45.081676,107.367661 43.272034,109.023552   C42.270737,109.939766 41.509838,111.118690 40.100861,112.837654   C45.353024,112.837654 48.986652,112.837654 51.717735,112.837654   C54.140167,110.011917 56.044601,107.790413 58.487831,104.940407   C59.930660,104.940407 62.227474,104.940407 64.721458,104.940407   C64.923492,103.545586 65.098816,102.335167 65.298706,100.955139   C67.908333,100.955139 70.204002,100.955139 72.767906,100.955139   C72.928650,99.567734 73.068222,98.363083 73.229004,96.975342   C77.218147,96.975342 80.847466,96.975342 84.804451,96.975342   C84.940636,95.583916 85.057999,94.384850 85.177498,93.163887   C90.710220,93.163887 95.853462,93.163887 100.999374,93.992546   C99.291740,97.407333 97.006004,100.229652 93.004257,101.619247   C93.004257,103.840782 93.004257,106.134903 93.004257,108.753983   C91.597565,108.925766 90.395332,109.072578 89.139771,109.225906   C89.139771,117.215302 89.139771,124.837517 89.139771,132.694336   C90.437790,132.905060 91.642876,133.100677 93.041992,133.327805   C93.041992,135.915466 93.041992,138.210663 93.041992,139.038452   C99.332603,145.393906 104.774826,150.892242 110.946190,157.127213   C113.369972,157.127213 116.994446,157.127213 120.644302,157.127213   C120.949654,158.567856 121.202660,159.761520 121.421410,160.793594   C130.740601,160.793594 139.695038,160.793594 148.006790,160.793594   C150.893967,153.907700 156.960220,158.759003 160.056503,155.957108   C165.535599,150.506012 171.014694,145.054916 177.078949,139.021637   C177.078949,137.897934 177.078949,135.750092 177.078949,133.280365   C178.373901,133.089355 179.578400,132.911682 180.866623,132.721664   C180.866623,124.817940 180.866623,117.195747 180.866623,109.253601   C179.589447,109.080887 178.385620,108.918083 176.985367,108.728722   C176.985367,106.114883 176.985367,103.818703 176.985367,101.522530   C176.445221,101.651489 175.905075,101.780449 175.364914,101.909416   C174.630432,100.273674 173.895935,98.637932 174.067322,97.000160   C177.531738,97.000160 180.996140,97.000160 184.807785,97.000160   C184.941010,98.381889 185.057755,99.592705 185.190842,100.973053   C187.822159,100.973053 190.109848,100.973053 192.488464,100.973053   C192.875610,102.443459 193.217072,103.740349 193.597610,105.185654   C196.181824,105.185654 198.467117,105.185654 200.752411,105.185654   C200.525879,105.488838 200.299332,105.792023 200.072800,106.095200   C202.861176,108.787346 205.649551,111.479500 209.104218,114.814941   C209.104218,115.995529 209.104218,118.282005 209.104218,120.732269   C210.488098,120.939133 211.688873,121.118622 213.761414,121.428429   C212.951233,125.835480 212.660980,130.045410 211.331131,133.896332   C210.042786,137.627075 207.869965,141.106552 205.723129,144.464661   C204.579391,146.253754 202.668655,147.552521 200.207077,149.025848   C197.490677,149.797104 192.517807,146.577744 193.008896,153.008926  z"
   id="path167" />
<path
   fill="#FF0000"
   opacity="1.000000"
   stroke="none"
   d=" M149.009369,12.609949   C135.985107,13.036444 122.953499,13.020799 109.452591,13.028622   C108.983292,11.902056 108.983292,10.752023 108.983292,9.015017   C121.829498,9.015017 134.477600,8.969024 147.122482,9.149129   C147.763199,9.158256 148.376144,11.116877 149.009369,12.609949  z"
   id="path169" />
<path
   fill="#FF0000"
   opacity="1.000000"
   stroke="none"
   d=" M108.581451,12.990290   C109.052101,14.123129 109.052101,15.262927 109.052101,17.005186   C103.899506,17.005186 98.909393,17.005186 93.451286,17.028637   C93.048271,15.802087 93.113251,14.552085 93.194077,12.997249   C98.374596,12.997249 103.242699,12.997249 108.581451,12.990290  z"
   id="path171" />
<path
   fill="#FF0000"
   opacity="1.000000"
   stroke="none"
   d=" M165.009369,16.610191   C160.597397,17.034546 156.170532,16.854879 151.761612,17.060469   C149.130936,17.183140 148.733200,15.961110 148.971436,13.428242   C153.360977,12.989442 157.779800,13.133525 162.184906,12.949166   C164.768036,12.841061 165.251663,14.056744 165.009369,16.610191  z"
   id="path173" />
<path
   fill="#FF0000"
   opacity="1.000000"
   stroke="none"
   d=" M105.021072,252.981598   C100.633034,252.974228 96.218971,252.854065 91.818840,253.048843   C89.250549,253.162537 88.735718,251.971115 89.004227,249.422394   C89.000893,249.001053 88.961952,249.041382 88.961952,249.041382   C93.369972,249.028137 97.783867,249.147110 102.183762,248.951263   C104.755440,248.836792 105.262054,250.035492 104.977417,252.600189   C104.961952,253.041397 105.000893,253.001053 105.021072,252.981598  z"
   id="path175" />
<path
   fill="#FF0000"
   opacity="1.000000"
   stroke="none"
   d=" M168.951538,248.955139   C168.951538,250.193054 168.951538,251.430969 168.951538,252.992661   C163.624542,252.992661 158.758499,252.992661 153.421997,252.973907   C152.951553,252.955154 152.992035,252.993942 153.011475,253.014008   C153.030930,251.900436 153.030930,250.766800 153.030930,249.005600   C158.139923,249.005600 163.116348,249.005600 168.542404,248.999771   C168.992035,248.993942 168.951538,248.955139 168.951538,248.955139  z"
   id="path177" />
<path
   fill="#FF0000"
   opacity="1.000000"
   stroke="none"
   d=" M177.009369,20.611656   C173.920975,21.034548 170.812241,20.834925 167.733459,21.054848   C165.087143,21.243883 164.747284,19.926317 164.971436,17.426792   C168.037399,16.989471 171.136627,17.149412 174.213379,16.954472   C176.806885,16.790152 177.238419,18.090864 177.009369,20.611656  z"
   id="path179" />
<path
   fill="#FF0000"
   opacity="1.000000"
   stroke="none"
   d=" M92.586800,16.990269   C92.991348,18.227669 92.930595,19.472012 92.855736,21.005260   C89.021339,21.005260 85.465141,21.005260 81.446106,21.028679   C81.045555,19.806675 81.107826,18.561256 81.186035,16.997213   C85.036087,16.997213 88.578789,16.997213 92.586800,16.990269  z"
   id="path181" />
<path
   fill="#FF0000"
   opacity="1.000000"
   stroke="none"
   d=" M180.958923,244.962204   C180.958923,246.194901 180.958923,247.427597 180.958923,248.992554   C176.961472,248.992554 173.421600,248.992554 169.416641,248.973846   C168.951538,248.955139 168.992035,248.993942 169.011475,249.014008   C169.030930,247.802277 169.030930,246.570511 169.030930,245.006927   C173.035690,245.006927 176.572906,245.006927 180.554688,245.004028   C180.999268,245.001144 180.958923,244.962204 180.958923,244.962204  z"
   id="path183" />
<path
   fill="#FF0000"
   opacity="1.000000"
   stroke="none"
   d=" M89.021072,248.981598   C85.956108,248.974182 82.861320,248.840393 79.788765,249.043259   C77.209831,249.213531 76.749641,247.934937 77.004257,245.420807   C77.000931,245.000977 76.961975,245.041321 76.961975,245.041321   C80.046921,245.028137 83.141518,245.160553 86.213837,244.956894   C88.795898,244.785751 89.248161,246.071396 88.977417,248.601654   C88.961952,249.041382 89.000893,249.001053 89.021072,248.981598  z"
   id="path185" />
<path
   fill="#FF0000"
   opacity="1.000000"
   stroke="none"
   d=" M201.095169,230.108673   C204.183701,229.217865 207.859741,226.922455 209.391266,233.035004   C206.191025,231.850861 202.580597,235.631866 201.095169,230.108673  z"
   id="path187" />
<path
   fill="#FF0000"
   opacity="1.000000"
   stroke="none"
   d=" M69.045227,240.951263   C67.058662,240.963364 65.072021,240.989029 63.085587,240.977768   C62.605377,240.975037 62.125854,240.850296 60.136665,240.565689   C61.443344,239.012939 62.440014,237.075287 63.098736,237.184067   C65.256355,237.540375 69.376274,234.757507 69.000023,240.576874   C69.006393,240.991730 69.045227,240.951263 69.045227,240.951263  z"
   id="path189" />
<path
   fill="#FF0000"
   opacity="1.000000"
   stroke="none"
   d=" M189.048523,241.044983   C189.048523,239.892792 189.048523,238.740601 189.048523,237.294403   C191.580872,237.294403 193.982635,237.294403 196.386917,237.294403   C196.823441,241.005829 196.823441,241.005829 189.438354,241.000183   C189.008057,241.006149 189.048523,241.044983 189.048523,241.044983  z"
   id="path191" />
<path
   fill="#FF0000"
   opacity="1.000000"
   stroke="none"
   d=" M77.021111,244.981506   C75.270058,244.974030 73.370926,245.381363 71.771034,244.863739   C70.640175,244.497879 69.914658,242.879135 69.026703,241.385498   C69.045227,240.951263 69.006393,240.991730 68.986328,241.011169   C70.735397,241.021088 72.632332,240.617523 74.230286,241.135803   C75.360725,241.502426 76.086472,243.116821 76.977432,244.607758   C76.961975,245.041321 77.000931,245.000977 77.021111,244.981506  z"
   id="path193" />
<path
   fill="#FF0000"
   opacity="1.000000"
   stroke="none"
   d=" M181.018738,245.021317   C181.038223,243.814835 181.038223,242.588165 181.038223,241.007614   C183.705948,241.007614 185.928406,241.007614 188.599701,241.026306   C189.048523,241.044983 189.008057,241.006149 188.988602,240.986084   C188.969147,242.198761 188.969147,243.431503 188.969147,244.993484   C186.295212,244.993484 184.075195,244.993484 181.407043,244.977844   C180.958923,244.962204 180.999268,245.001144 181.018738,245.021317  z"
   id="path195" />
<path
   fill="#FF0000"
   opacity="1.000000"
   stroke="none"
   d=" M60.562645,33.097340   C61.000301,34.317139 61.000301,35.467834 61.000301,36.982773   C58.487034,36.982773 56.182430,36.982773 53.438835,36.908066   C52.999847,35.696224 52.999847,34.559082 52.999847,33.028236   C55.557076,33.028236 57.841030,33.028236 60.562645,33.097340  z"
   id="path197" />
<path
   fill="#FF0000"
   opacity="1.000000"
   stroke="none"
   d=" M55.685089,229.064880   C56.466732,230.203934 56.799316,231.294662 57.406704,233.286636   C53.975052,232.021835 49.744694,235.231033 48.657413,229.016556   C51.383560,229.016556 53.309795,229.016556 55.685089,229.064880  z"
   id="path199" />
<path
   fill="#FF0000"
   opacity="1.000000"
   stroke="none"
   d=" M204.902649,36.574623   C203.026566,36.999737 201.120071,37.346775 199.449814,36.868610   C198.443283,36.580460 197.804230,35.008656 196.999878,33.590057   C198.757812,33.111629 200.637543,32.655674 202.232498,33.139137   C203.347260,33.477043 204.072510,35.099964 204.902649,36.574623  z"
   id="path201" />
<path
   fill="#FF0000"
   opacity="1.000000"
   stroke="none"
   d=" M80.602951,20.990231   C80.994225,22.227146 80.936340,23.470980 80.864937,25.005358   C78.355202,25.005358 76.116867,25.005358 73.430908,25.028736   C72.983276,23.823128 72.983276,22.594145 72.983276,20.997150   C75.705002,20.997150 77.929405,20.997150 80.602951,20.990231  z"
   id="path203" />
<path
   fill="#FF0000"
   opacity="1.000000"
   stroke="none"
   d=" M185.009430,24.617611   C183.236847,25.034557 181.436951,24.840841 179.681793,25.040462   C177.003403,25.345083 176.776138,23.855211 176.971375,21.420609   C178.721344,20.989553 180.624634,20.604158 182.224304,21.134537   C183.362091,21.511778 184.090851,23.122755 185.009430,24.617611  z"
   id="path205" />
<path
   fill="#FF0000"
   opacity="1.000000"
   stroke="none"
   d=" M72.605728,24.990223   C72.994431,26.221712 72.936760,27.460114 72.865845,28.982874   C70.357338,28.982874 68.119736,28.982874 65.440979,28.908119   C65.050598,27.691839 65.101349,26.550318 65.170410,24.997135   C67.575066,24.997135 69.867210,24.997135 72.605728,24.990223  z"
   id="path207" />
<path
   fill="#FF0000"
   opacity="1.000000"
   stroke="none"
   d=" M192.902649,28.574455   C191.000488,28.999533 189.058563,29.363333 187.375336,28.860720   C186.371902,28.561089 185.774658,26.901094 184.971359,25.417980   C186.716415,24.989523 188.611649,24.609196 190.210403,25.133297   C191.339050,25.503294 192.065659,27.099716 192.902649,28.574455  z"
   id="path209" />
<path
   fill="#000000"
   opacity="1.000000"
   stroke="none"
   d=" M100.996696,93.163887   C95.853462,93.163887 90.710220,93.163887 85.177498,93.163887   C85.057999,94.384850 84.940636,95.583916 84.804451,96.975342   C80.847466,96.975342 77.218147,96.975342 73.229004,96.975342   C73.068222,98.363083 72.928650,99.567734 72.767906,100.955139   C70.204002,100.955139 67.908333,100.955139 65.298706,100.955139   C65.098816,102.335167 64.923492,103.545586 64.721458,104.940407   C62.227474,104.940407 59.930660,104.940407 58.487831,104.940407   C56.044601,107.790413 54.140167,110.011917 51.717735,112.837654   C48.986652,112.837654 45.353024,112.837654 40.100861,112.837654   C41.509838,111.118690 42.270737,109.939766 43.272034,109.023552   C45.081676,107.367661 48.263176,106.115608 48.639023,104.246056   C49.196651,101.472282 50.392975,101.062386 52.541512,100.562439   C52.996567,100.456551 53.026012,98.521645 53.308727,97.152580   C54.364429,97.104073 55.496288,97.031174 56.629208,97.005814   C57.794716,96.979729 58.961266,97.000023 60.464325,97.000023   C60.787727,95.723335 61.118557,94.417313 61.461525,93.063385   C65.123268,93.063385 68.610359,93.063385 72.429375,93.063385   C72.780739,91.740967 73.126350,90.440193 73.489601,89.073029   C77.097580,89.073029 80.581978,89.073029 84.408752,89.073029   C84.767509,87.759323 85.119690,86.469681 85.526855,84.978714   C90.549644,84.978714 95.512665,84.978714 100.810654,84.978714   C100.942734,83.585884 101.056282,82.388412 101.176666,81.118973   C119.856720,81.118973 138.149109,81.118973 156.828735,81.118973   C156.946198,82.400978 157.056854,83.608490 157.182770,84.982758   C163.828033,84.982758 170.123154,84.982758 176.780334,84.982758   C176.935547,86.382065 177.069916,87.593353 177.221909,88.963562   C181.135956,88.963562 184.765167,88.963562 188.741486,88.963562   C188.922272,90.359581 189.079468,91.573372 189.257050,92.944649   C191.780457,92.944649 194.076630,92.944649 195.522079,92.944649   C197.961197,95.796890 199.865448,98.023659 202.323853,100.898468   C203.700806,100.898468 206.000732,100.898468 207.158676,100.898468   C210.538162,104.377632 213.252289,107.171799 215.966400,109.965973   C216.256866,109.747597 216.547318,109.529213 216.837784,109.310837   C216.837784,111.610741 216.837784,113.910645 216.837784,115.360970   C218.865036,117.154274 220.370758,118.486244 221.876495,119.818214   C221.671326,120.194077 221.466141,120.569939 221.260971,120.945801   C223.692307,120.945801 226.123627,120.945801 228.774567,120.945801   C228.774567,123.584915 228.774567,125.865891 228.774567,127.566444   C224.916962,131.188980 221.276016,134.608047 216.987610,138.635132   C216.987610,139.869507 216.987610,142.171524 216.987610,143.042557   C209.446457,150.597290 202.726044,157.329803 195.189636,164.879761   C194.316467,164.879761 192.014908,164.879761 189.429840,164.879761   C189.178665,166.241730 188.955872,167.449738 188.694458,168.867157   C185.007126,168.867157 181.376770,168.867157 177.449402,168.867157   C177.187790,170.233688 176.957855,171.434708 176.687592,172.846390   C173.031845,172.846390 169.401108,172.846390 165.477921,172.846390   C165.201874,174.212219 164.959442,175.411743 164.672424,176.831863   C159.724976,176.831863 154.761978,176.831863 149.502335,176.831863   C149.213287,178.189529 148.959122,179.383362 148.659943,180.788605   C130.414764,180.788605 112.121635,180.788605 93.438408,180.788605   C93.234131,179.830353 92.979843,178.637512 92.672813,177.197235   C86.446960,177.197235 80.153595,177.197235 73.570465,177.197235   C73.208855,175.726440 72.887665,174.420059 72.553314,173.060120   C68.865456,173.060120 65.378563,173.060120 61.558891,173.060120   C61.214504,171.736572 60.875122,170.432281 60.490005,168.952209   C58.082188,168.952209 55.783043,168.952209 54.247105,168.952209   C51.908745,166.129303 50.042740,163.876633 47.663479,161.004364   C46.156063,161.004364 43.856113,161.004364 42.962189,161.004364   C39.388924,157.446945 36.629959,154.700211 33.068298,151.154327   C33.068298,150.247086 33.068298,147.947205 33.068298,145.338699   C31.694908,145.125656 30.484200,144.937851 29.153975,144.731491   C29.153975,142.261276 29.153975,139.965591 29.153975,136.453873   C31.027554,137.362106 32.758045,137.780792 33.904255,138.834839   C37.447601,142.093292 40.768288,145.593872 44.583019,149.455872   C45.422958,150.932175 45.635853,152.151306 46.338009,152.928345   C47.448982,154.157776 48.887718,155.091049 50.187744,156.149643   C50.011372,156.459076 49.834995,156.768509 49.658623,157.077942   C52.092133,157.077942 54.525642,157.077942 56.959152,157.077942   C56.959152,157.077942 56.991058,157.008850 56.992134,157.461182   C57.036465,164.595978 62.790230,158.828705 64.775452,161.887390   C64.689835,168.109375 70.391090,163.356934 72.714561,165.558899   C72.952438,166.621201 73.218185,167.807968 73.519592,169.153992   C80.090111,169.153992 86.362465,169.153992 92.672623,169.153992   C92.951401,170.556351 93.188835,171.750717 93.388741,172.756332   C112.123199,172.756332 130.489944,172.756332 148.889160,172.756332   C148.960251,171.357010 149.019104,170.198929 149.077942,169.040848   C149.077942,169.040848 149.008896,169.008926 149.488739,169.007843   C154.938232,169.006760 159.907852,169.006760 164.875763,169.006760   C164.962326,167.308762 165.020142,166.174805 165.077942,165.040848   C165.077942,165.040848 165.008896,165.008926 165.483505,165.007904   C169.602432,165.006866 173.246750,165.006866 176.881973,165.006866   C176.966507,163.295914 177.022217,162.168381 177.077942,161.040848   C177.077942,161.040848 177.008896,161.008926 177.468018,161.007965   C180.149841,161.007004 182.372574,161.007004 184.794083,161.007004   C184.902313,159.494766 184.990128,158.267807 185.077942,157.040848   C185.077942,157.040848 185.008896,157.008926 185.468018,157.007965   C188.149841,157.007004 190.372574,157.007004 192.794067,157.007004   C192.902298,155.494766 192.990128,154.267807 193.077942,153.040848   C193.077942,153.040848 193.008896,153.008926 193.467804,153.007965   C196.254929,153.007004 198.583130,153.007004 200.881363,153.007004   C200.977798,151.303558 201.040955,150.188065 201.104095,149.072586   C202.668655,147.552521 204.579391,146.253754 205.723129,144.464661   C207.869965,141.106552 210.042786,137.627075 211.331131,133.896332   C212.660980,130.045410 212.951233,125.835480 213.761414,121.428429   C211.688873,121.118622 210.488098,120.939133 209.104218,120.732269   C209.104218,118.282005 209.104218,115.995529 209.104218,114.814941   C205.649551,111.479500 202.861176,108.787346 200.072800,106.095200   C200.299332,105.792023 200.525879,105.488838 200.752411,105.185654   C198.467117,105.185654 196.181824,105.185654 193.597610,105.185654   C193.217072,103.740349 192.875610,102.443459 192.488464,100.973053   C190.109848,100.973053 187.822159,100.973053 185.190842,100.973053   C185.057755,99.592705 184.941010,98.381889 184.807785,97.000160   C180.996140,97.000160 177.531738,97.000160 173.440613,96.677109   C169.975754,93.524147 166.575714,92.822586 162.610306,92.844887   C160.245529,92.858192 157.872086,91.334473 155.502548,90.501709   C155.616592,90.053551 155.730637,89.605385 155.844681,89.157227   C153.550308,89.157227 151.255951,89.157227 148.525024,89.090012   C147.093933,89.013580 146.090637,88.914406 145.106400,89.010437   C140.339905,89.475517 135.585281,90.279915 130.812988,90.392288   C127.566399,90.468742 124.297585,89.602104 120.572601,89.095238   C115.336319,89.033287 110.566154,89.033287 105.795982,89.033287   C105.938362,89.436836 106.080750,89.840393 106.223129,90.243942   C104.480988,91.217255 102.738838,92.190575 100.996696,93.163887  z"
   id="path211" />
<path
   fill="#CC0000"
   opacity="1.000000"
   stroke="none"
   d=" M100.998032,93.578217   C102.738838,92.190575 104.480988,91.217255 106.223129,90.243942   C106.080750,89.840393 105.938362,89.436836 105.795982,89.033287   C110.566154,89.033287 115.336319,89.033287 120.559044,89.520241   C121.023132,91.998573 121.034660,93.989960 121.033340,96.239365   C121.016769,96.669373 121.013046,96.841362 120.546906,97.007942   C117.759804,97.000969 115.434402,96.962433 113.110596,97.006798   C109.880127,97.068466 105.444473,101.466331 104.580322,104.997131   C103.110703,106.049889 101.746780,106.935928 101.095215,108.191597   C100.468231,109.399887 100.892647,112.076698 100.315117,112.243980   C94.934059,113.802597 97.587265,118.092445 97.026039,121.216171   C96.465782,124.334450 98.147942,125.343208 101.107162,125.271393   C101.486610,126.024742 101.758659,126.517746 101.949951,127.384109   C99.206772,129.464142 93.205254,130.569153 100.723137,134.129471   C100.918022,134.221771 100.820175,134.913422 101.019669,135.017593   C104.007942,136.578201 104.576904,141.366669 108.996727,141.419525   C109.744789,142.879639 110.373367,144.691086 111.252983,144.822510   C113.954681,145.226227 116.984337,144.416412 117.769753,148.424957   C117.846199,148.815125 119.874977,148.822754 120.998932,149.405731   C121.680527,150.835983 122.360695,151.868423 123.040863,152.900879   C123.725037,152.008331 124.558769,151.190323 125.051262,150.202240   C125.542297,149.217087 125.691216,148.061401 126.245979,146.975281   C126.672195,146.961014 126.842552,146.951950 127.341110,147.137939   C128.394577,149.092651 129.119827,150.852280 129.857635,152.642395   C132.097733,152.642395 134.333511,152.642395 136.964340,152.642395   C136.964340,146.572128 136.964340,140.862747 137.368774,135.090546   C138.860733,135.069595 139.948257,135.111465 141.021912,135.597870   C141.008026,141.613266 141.008026,147.184143 141.008026,152.764908   C144.110748,152.764908 146.197433,152.764908 148.442001,152.764908   C148.991608,150.719635 149.493118,148.853271 150.365768,147.030273   C156.065704,150.019608 156.418762,149.902939 157.002563,145.001221   C157.000000,145.000000 157.002441,145.005142 157.402298,145.001892   C161.000244,143.051407 164.689194,141.545944 165.417999,136.998184   C166.888306,135.949112 168.253128,135.064377 168.904663,133.809372   C169.531860,132.601242 169.106812,129.924042 169.684402,129.756638   C175.064224,128.197556 172.413208,123.908249 172.974075,120.784119   C173.533936,117.665680 171.852249,116.656700 168.882080,116.723953   C168.181412,115.972382 167.598801,115.485832 167.188080,114.667847   C168.045563,113.913193 168.716614,113.463875 169.419998,113.072678   C170.567551,112.434456 171.736176,111.834137 172.895920,111.217834   C172.050262,110.420677 170.806046,109.777733 170.427643,108.799774   C168.751053,104.466736 164.677750,105.066376 161.309998,104.479446   C161.057480,101.854523 160.841492,99.609116 160.636322,97.476257   C157.519775,97.058647 156.398804,96.420425 151.922409,93.332832   C151.210892,92.842064 149.990555,93.088966 149.004852,92.610931   C148.990021,91.203773 148.975815,90.180496 148.961594,89.157227   C151.255951,89.157227 153.550308,89.157227 155.844681,89.157227   C155.730637,89.605385 155.616592,90.053551 155.502548,90.501709   C157.872086,91.334473 160.245529,92.858192 162.610306,92.844887   C166.575714,92.822586 169.975754,93.524147 172.987671,96.678116   C173.895935,98.637932 174.630432,100.273674 175.364914,101.909416   C175.905075,101.780449 176.445221,101.651489 176.985367,101.522530   C176.985367,103.818703 176.985367,106.114883 176.985367,108.728722   C178.385620,108.918083 179.589447,109.080887 180.866623,109.253601   C180.866623,117.195747 180.866623,124.817940 180.866623,132.721664   C179.578400,132.911682 178.373901,133.089355 177.078949,133.280365   C177.078949,135.750092 177.078949,137.897934 177.078949,139.021637   C171.014694,145.054916 165.535599,150.506012 160.056503,155.957108   C156.960220,158.759003 150.893967,153.907700 148.006790,160.793594   C139.695038,160.793594 130.740601,160.793594 121.421410,160.793594   C121.202660,159.761520 120.949654,158.567856 120.644302,157.127213   C116.994446,157.127213 113.369972,157.127213 110.946190,157.127213   C104.774826,150.892242 99.332603,145.393906 93.041992,139.038452   C93.041992,138.210663 93.041992,135.915466 93.041992,133.327805   C91.642876,133.100677 90.437790,132.905060 89.139771,132.694336   C89.139771,124.837517 89.139771,117.215302 89.139771,109.225906   C90.395332,109.072578 91.597565,108.925766 93.004257,108.753983   C93.004257,106.134903 93.004257,103.840782 93.004257,101.619247   C97.006004,100.229652 99.291740,97.407333 100.998032,93.578217  z"
   id="path213" />
<path
   fill="#FFD1D1"
   opacity="1.000000"
   stroke="none"
   d=" M148.604187,169.028244   C149.019104,170.198929 148.960251,171.357010 148.889160,172.756332   C130.489944,172.756332 112.123199,172.756332 93.388741,172.756332   C93.188835,171.750717 92.951401,170.556351 92.672623,169.153992   C86.362465,169.153992 80.090111,169.153992 73.519592,169.153992   C73.218185,167.807968 72.952438,166.621201 72.714561,165.558899   C70.391090,163.356934 64.689835,168.109375 64.775452,161.887390   C62.790230,158.828705 57.036465,164.595978 56.957596,157.477142   C59.583538,157.027481 62.245258,156.992401 64.906570,157.012161   C65.898361,157.019516 67.533539,156.812607 67.783875,157.283554   C71.558624,164.385147 78.079552,159.706711 83.177887,160.945374   C85.516090,161.513443 88.696335,159.869141 89.444504,163.972260   C89.536858,164.478760 91.389542,164.910202 92.442635,164.950058   C95.765053,165.075775 99.102264,164.865005 102.420006,165.042084   C105.096725,165.184921 108.619148,163.575119 109.587952,168.196121   C109.699387,168.727676 112.265121,168.957901 113.694992,168.966064   C125.173187,169.031708 136.651871,169.010376 148.604187,169.028244  z"
   id="path215" />
<path
   fill="#FFD1D1"
   opacity="1.000000"
   stroke="none"
   d=" M164.605530,165.028259   C165.020142,166.174805 164.962326,167.308762 164.875763,169.006760   C159.907852,169.006760 154.938232,169.006760 149.504700,169.042358   C148.644073,166.234863 149.515259,164.754837 152.750717,164.949295   C156.532516,165.176605 160.337952,165.010880 164.605530,165.028259  z"
   id="path217" />
<path
   fill="#FFD1D1"
   opacity="1.000000"
   stroke="none"
   d=" M56.969570,156.670929   C54.525642,157.077942 52.092133,157.077942 49.658623,157.077942   C49.834995,156.768509 50.011372,156.459076 50.187744,156.149643   C48.887718,155.091049 47.448982,154.157776 46.338009,152.928345   C45.635853,152.151306 45.422958,150.932175 44.943199,149.491928   C51.538490,148.919144 55.740841,151.419998 56.969570,156.670929  z"
   id="path219" />
<path
   fill="#FFD1D1"
   opacity="1.000000"
   stroke="none"
   d=" M176.611237,161.028351   C177.022217,162.168381 176.966507,163.295914 176.881973,165.006866   C173.246750,165.006866 169.602432,165.006866 165.499466,165.042419   C164.648178,162.248688 165.500168,160.681747 168.736710,160.960312   C171.189392,161.171417 173.674088,161.010956 176.611237,161.028351  z"
   id="path221" />
<path
   fill="#FFD1D1"
   opacity="1.000000"
   stroke="none"
   d=" M184.629639,157.028564   C184.990128,158.267807 184.902313,159.494766 184.794083,161.007004   C182.372574,161.007004 180.149841,161.007004 177.483978,161.042480   C176.501144,154.590927 181.474350,157.795670 184.629639,157.028564  z"
   id="path223" />
<path
   fill="#FFD1D1"
   opacity="1.000000"
   stroke="none"
   d=" M192.629639,153.028564   C192.990128,154.267807 192.902298,155.494766 192.794067,157.007004   C190.372574,157.007004 188.149841,157.007004 185.483978,157.042480   C184.501144,150.590927 189.474350,153.795670 192.629639,153.028564  z"
   id="path225" />
<path
   fill="#FFD1D1"
   opacity="1.000000"
   stroke="none"
   d=" M200.655579,149.049225   C201.040955,150.188065 200.977798,151.303558 200.881363,153.007004   C198.583130,153.007004 196.254929,153.007004 193.483765,153.042480   C192.517807,146.577744 197.490677,149.797104 200.655579,149.049225  z"
   id="path227" />
<path
   fill="#FC0000"
   opacity="1.000000"
   stroke="none"
   d=" M148.525024,89.090012   C148.975815,90.180496 148.990021,91.203773 149.000900,92.614731   C148.997574,93.002411 148.989853,93.010132 148.522247,93.006195   C142.260712,93.001297 136.439209,92.661804 130.683578,93.130844   C127.415390,93.397179 124.255089,94.987358 121.046188,95.981339   C121.034660,93.989960 121.023132,91.998573 121.025154,89.582191   C124.297585,89.602104 127.566399,90.468742 130.812988,90.392288   C135.585281,90.279915 140.339905,89.475517 145.106400,89.010437   C146.090637,88.914406 147.093933,89.013580 148.525024,89.090012  z"
   id="path229" />
<path
   fill="#000000"
   opacity="1.000000"
   stroke="none"
   d=" M141.035797,135.153336   C139.948257,135.111465 138.860733,135.069595 136.979507,135.022583   C135.136200,135.062698 134.086563,135.107925 132.643127,135.093323   C131.189682,134.980225 130.130035,134.926956 128.890839,134.573837   C125.312325,133.067383 123.172577,130.840454 123.124313,126.775459   C125.903358,122.535324 126.346550,118.695663 122.969482,114.642838   C123.623222,113.167442 124.251205,112.041359 125.264549,110.911560   C128.434540,109.588341 131.219162,108.268837 134.210876,106.969131   C134.417938,106.988945 134.833389,107.011078 135.009155,107.368469   C136.060898,110.656036 136.936874,113.586205 137.904007,116.821320   C139.786301,116.821320 142.178207,116.821320 144.767334,116.821320   C144.904617,115.509209 145.035156,114.261635 145.556946,113.011551   C146.958282,113.738457 148.074173,114.361389 148.947037,115.228859   C149.733734,116.010704 150.254211,117.060402 150.895126,118.399918   C151.757706,124.411552 152.240753,129.915909 146.653687,134.015564   C145.914154,134.479355 145.440399,134.816544 144.577026,135.085724   C143.136871,135.062912 142.086334,135.108124 141.035797,135.153336  z"
   id="path231" />
<path
   fill="#FF0000"
   opacity="1.000000"
   stroke="none"
   d=" M122.899254,127.101196   C123.172577,130.840454 125.312325,133.067383 128.869080,135.036087   C129.019836,138.861099 129.012787,141.924011 128.855621,145.229721   C128.141312,145.962646 127.577103,146.452759 127.012901,146.942871   C126.842552,146.951950 126.672195,146.961014 126.073822,146.655701   C121.878349,143.363846 120.927269,145.295731 120.997513,149.007935   C119.874977,148.822754 117.846199,148.815125 117.769753,148.424957   C116.984337,144.416412 113.954681,145.226227 111.252983,144.822510   C110.373367,144.691086 109.744789,142.879639 109.443100,141.418945   C111.038544,141.000549 112.336365,141.335709 113.311066,140.917618   C114.655830,140.340820 115.756775,139.195587 116.962158,138.293823   C115.824646,137.201096 114.847466,135.790726 113.501366,135.111267   C112.321411,134.515686 110.727371,134.740433 109.568893,134.627457   C108.248535,131.539215 110.709541,126.768440 105.002884,126.546112   C105.000854,123.057396 105.000519,120.023178 105.444611,116.992996   C108.263062,117.002541 110.637085,117.008034 113.005814,117.006516   C113.000519,116.999489 112.986465,116.988922 112.989670,117.391548   C112.285156,118.872971 111.585190,119.956963 110.867264,121.028908   C110.307343,121.864944 109.725060,122.686005 109.152710,123.513710   C110.075363,124.006294 110.973106,124.858711 111.925301,124.924622   C114.890152,125.129852 117.875633,125.037094 120.990257,125.320686   C121.718018,126.088036 122.308632,126.594620 122.899254,127.101196  z"
   id="path233" />
<path
   fill="#FF0000"
   opacity="1.000000"
   stroke="none"
   d=" M146.919449,133.888962   C152.240753,129.915909 151.757706,124.411552 151.179916,118.350761   C151.934525,117.568810 152.407379,117.243958 153.349487,116.945572   C157.541367,116.994049 161.263977,117.016045 164.990814,117.480240   C164.996628,120.285309 164.998215,122.648178 164.556793,125.007019   C163.128876,125.002251 162.088455,124.798088 161.171982,125.048180   C159.779663,125.428131 158.473373,126.123291 157.130539,126.684555   C158.419022,127.477020 159.707520,128.269485 160.997131,129.497604   C161.740326,132.615677 158.704132,137.434204 164.989502,136.989502   C164.993866,136.993866 165.000610,137.000610 165.000610,137.000610   C164.689194,141.545944 161.000244,143.051407 157.399994,144.603195   C156.269913,143.178116 155.542023,142.148468 154.814117,141.118835   C154.248459,141.783829 153.682800,142.448822 153.117157,143.113800   C154.413162,143.743347 155.709152,144.372894 157.005142,145.002441   C156.418762,149.902939 156.065704,150.019608 150.259125,146.771378   C149.519012,145.975037 149.256638,145.480972 148.996338,144.546021   C148.305435,140.699738 147.612442,137.294357 146.919449,133.888962  z"
   id="path235" />
<path
   fill="#FC0000"
   opacity="1.000000"
   stroke="none"
   d=" M149.001526,92.998611   C149.990555,93.088966 151.210892,92.842064 151.922409,93.332832   C156.398804,96.420425 157.519775,97.058647 160.636322,97.476257   C160.841492,99.609116 161.057480,101.854523 161.309998,104.479446   C164.677750,105.066376 168.751053,104.466736 170.427643,108.799774   C170.806046,109.777733 172.050262,110.420677 172.895920,111.217834   C171.736176,111.834137 170.567551,112.434456 169.419998,113.072678   C168.716614,113.463875 168.045563,113.913193 166.941101,114.665878   C166.522202,114.995346 166.028595,114.988403 165.827271,114.646759   C161.464737,113.851562 157.303528,113.398018 153.086273,112.546425   C152.182327,111.102165 151.497696,109.830406 150.444397,109.067955   C149.182816,108.154747 147.606461,107.676399 146.003387,106.667595   C144.224640,105.828033 142.608932,105.330597 140.994553,104.400032   C141.015030,101.645500 141.034195,99.324089 141.491943,97.002060   C144.619797,96.265587 149.433548,99.287247 148.989853,93.010132   C148.989853,93.010132 148.997574,93.002411 149.001526,92.998611  z"
   id="path237" />
<path
   fill="#FC0000"
   opacity="1.000000"
   stroke="none"
   d=" M124.879181,110.915276   C124.251205,112.041359 123.623222,113.167442 122.702011,114.760773   C121.981216,115.846474 121.553642,116.464912 120.672226,117.057503   C117.807739,117.017403 115.397102,117.003159 112.986465,116.988922   C112.986465,116.988922 113.000519,116.999489 112.998619,116.589066   C112.125122,115.124825 111.438065,113.511909 110.338425,113.148933   C108.711121,112.611794 106.790916,112.962013 104.996552,112.494324   C104.997635,109.700165 104.997581,107.346107 104.997528,104.992058   C105.444473,101.466331 109.880127,97.068466 113.110596,97.006798   C115.434402,96.962433 117.759804,97.000969 120.540939,97.000122   C120.997391,96.997726 120.982208,96.989799 121.121414,97.303101   C122.535454,99.452530 123.810295,101.288651 125.055054,103.556610   C124.976372,106.297386 124.927780,108.606331 124.879181,110.915276  z"
   id="path239" />
<path
   fill="#FC0000"
   opacity="1.000000"
   stroke="none"
   d=" M105.004578,127.000610   C110.709541,126.768440 108.248535,131.539215 109.568893,134.627457   C110.727371,134.740433 112.321411,134.515686 113.501366,135.111267   C114.847466,135.790726 115.824646,137.201096 116.962158,138.293823   C115.756775,139.195587 114.655830,140.340820 113.311066,140.917618   C112.336365,141.335709 111.038544,141.000549 109.438431,141.001862   C104.576904,141.366669 104.007942,136.578201 101.019669,135.017593   C100.820175,134.913422 100.918022,134.221771 100.723137,134.129471   C93.205254,130.569153 99.206772,129.464142 102.320969,127.379883   C103.516701,127.001740 104.260635,127.001175 105.004578,127.000610  z"
   id="path241" />
<path
   fill="#F90000"
   opacity="1.000000"
   stroke="none"
   d=" M148.522247,93.006195   C149.433548,99.287247 144.619797,96.265587 141.327393,96.699539   C138.320801,93.837944 137.575134,96.278145 137.305786,97.840317   C136.899429,100.197151 137.118378,102.661804 136.945938,105.376152   C136.158020,106.118141 135.495697,106.564606 134.833389,107.011078   C134.833389,107.011078 134.417938,106.988945 134.130524,106.712616   C133.533371,106.001900 133.223648,105.567505 132.939407,104.677094   C132.812637,101.269470 132.660370,98.317886 132.550293,96.183907   C127.965660,96.503296 124.473938,96.746552 120.982208,96.989799   C120.982208,96.989799 120.997391,96.997726 121.003357,97.005539   C121.013046,96.841362 121.016769,96.669373 121.033348,96.239365   C124.255089,94.987358 127.415390,93.397179 130.683578,93.130844   C136.439209,92.661804 142.260712,93.001297 148.522247,93.006195  z"
   id="path243" />
<path
   fill="#F90000"
   opacity="1.000000"
   stroke="none"
   d=" M127.341110,147.137939   C127.577103,146.452759 128.141312,145.962646 129.274170,145.236511   C130.891098,143.977936 132.566330,143.103195 132.850021,141.900284   C133.355743,139.755814 133.020493,137.413010 133.036926,135.153152   C134.086563,135.107925 135.136200,135.062698 136.575073,135.085419   C136.964340,140.862747 136.964340,146.572128 136.964340,152.642395   C134.333511,152.642395 132.097733,152.642395 129.857635,152.642395   C129.119827,150.852280 128.394577,149.092651 127.341110,147.137939  z"
   id="path245" />
<path
   fill="#F90000"
   opacity="1.000000"
   stroke="none"
   d=" M148.994263,144.986923   C149.256638,145.480972 149.519012,145.975037 149.888000,146.727997   C149.493118,148.853271 148.991608,150.719635 148.442001,152.764908   C146.197433,152.764908 144.110748,152.764908 141.008026,152.764908   C141.008026,147.184143 141.008026,141.613266 141.021912,135.597870   C142.086334,135.108124 143.136871,135.062912 144.590057,135.529205   C144.997604,137.808990 145.147202,139.591431 144.975723,141.342422   C144.668213,144.481995 146.231705,145.342743 148.994263,144.986923  z"
   id="path247" />
<path
   fill="#FF0000"
   opacity="1.000000"
   stroke="none"
   d=" M169.000137,116.988976   C171.852249,116.656700 173.533936,117.665680 172.974075,120.784119   C172.413208,123.908249 175.064224,128.197556 169.684402,129.756638   C169.106812,129.924042 169.531860,132.601242 168.904663,133.809372   C168.253128,135.064377 166.888306,135.949112 165.417999,136.998184   C165.000610,137.000610 164.993866,136.993866 164.995239,136.546814   C164.996811,133.730728 164.997009,131.361694 165.121262,128.696991   C165.502686,127.600945 165.760056,126.800552 166.425079,125.986145   C171.198410,123.856766 167.988495,119.913589 169.000137,116.988976  z"
   id="path249" />
<path
   fill="#FF0000"
   opacity="1.000000"
   stroke="none"
   d=" M104.580322,104.997131   C104.997581,107.346107 104.997635,109.700165 104.733955,112.630615   C103.983963,113.804672 103.497704,114.402313 102.669281,115.187943   C101.884666,118.587639 101.442215,121.799347 100.999771,125.011055   C98.147942,125.343208 96.465782,124.334450 97.026039,121.216171   C97.587265,118.092445 94.934059,113.802597 100.315117,112.243980   C100.892647,112.076698 100.468231,109.399887 101.095215,108.191597   C101.746780,106.935928 103.110703,106.049889 104.580322,104.997131  z"
   id="path251" />
<path
   fill="#EF0000"
   opacity="1.000000"
   stroke="none"
   d=" M101.107162,125.271393   C101.442215,121.799347 101.884666,118.587639 102.934418,115.306244   C104.027878,115.820686 104.514030,116.404823 105.000183,116.988960   C105.000519,120.023178 105.000854,123.057396 105.002884,126.546112   C104.260635,127.001175 103.516701,127.001740 102.401733,127.006531   C101.758659,126.517746 101.486610,126.024742 101.107162,125.271393  z"
   id="path253" />
<path
   fill="#EF0000"
   opacity="1.000000"
   stroke="none"
   d=" M168.882080,116.723953   C167.988495,119.913589 171.198410,123.856766 166.201050,125.883652   C165.289215,125.599380 165.099350,125.337997 164.999802,125.011040   C164.998215,122.648178 164.996628,120.285309 165.240189,117.305931   C165.666412,116.122414 165.847504,115.555405 166.028595,114.988403   C166.028595,114.988403 166.522202,114.995346 166.769196,114.997314   C167.598801,115.485832 168.181412,115.972382 168.882080,116.723953  z"
   id="path255" />
<path
   fill="#FC0000"
   opacity="1.000000"
   stroke="none"
   d=" M120.998932,149.405731   C120.927269,145.295731 121.878349,143.363846 125.817963,146.660904   C125.691216,148.061401 125.542297,149.217087 125.051262,150.202240   C124.558769,151.190323 123.725037,152.008331 123.040863,152.900879   C122.360695,151.868423 121.680527,150.835983 120.998932,149.405731  z"
   id="path257" />
<path
   fill="#FFEDED"
   opacity="1.000000"
   stroke="none"
   d=" M135.009155,107.368469   C135.495697,106.564606 136.158020,106.118141 137.337357,105.340454   C138.900665,104.950546 139.946960,104.891846 140.993240,104.833145   C142.608932,105.330597 144.224640,105.828033 145.827271,107.024101   C145.598038,109.486511 145.381866,111.250282 145.165680,113.014061   C145.035156,114.261635 144.904617,115.509209 144.767334,116.821320   C142.178207,116.821320 139.786301,116.821320 137.904007,116.821320   C136.936874,113.586205 136.060898,110.656036 135.009155,107.368469  z"
   id="path259" />
<path
   fill="#4C0000"
   opacity="1.000000"
   stroke="none"
   d=" M145.556946,113.011551   C145.381866,111.250282 145.598038,109.486511 145.990326,107.366226   C147.606461,107.676399 149.182816,108.154747 150.444397,109.067955   C151.497696,109.830406 152.182327,111.102165 153.035309,112.942589   C152.987015,114.797569 152.933624,115.858337 152.880234,116.919098   C152.407379,117.243958 151.934525,117.568810 151.176895,117.942810   C150.254211,117.060402 149.733734,116.010704 148.947037,115.228859   C148.074173,114.361389 146.958282,113.738457 145.556946,113.011551  z"
   id="path261" />
<path
   fill="#4C0000"
   opacity="1.000000"
   stroke="none"
   d=" M132.913925,105.133118   C133.223648,105.567505 133.533371,106.001900 133.923447,106.692810   C131.219162,108.268837 128.434540,109.588341 125.264542,110.911560   C124.927780,108.606331 124.976372,106.297386 125.423508,103.541878   C128.186005,103.774582 130.549973,104.453850 132.913925,105.133118  z"
   id="path263" />
<path
   fill="#4C0000"
   opacity="1.000000"
   stroke="none"
   d=" M121.126068,117.083359   C121.553642,116.464912 121.981216,115.846474 122.676254,115.110100   C126.346550,118.695663 125.903358,122.535324 123.124313,126.775459   C122.308632,126.594620 121.718018,126.088036 121.042969,124.877052   C121.014374,121.809547 121.070221,119.446449 121.126068,117.083359  z"
   id="path265" />
<path
   fill="#CC0000"
   opacity="1.000000"
   stroke="none"
   d=" M132.643127,135.093323   C133.020493,137.413010 133.355743,139.755814 132.850021,141.900284   C132.566330,143.103195 130.891098,143.977936 129.424286,144.993713   C129.012787,141.924011 129.019836,138.861099 129.048645,135.335938   C130.130035,134.926956 131.189682,134.980225 132.643127,135.093323  z"
   id="path267" />
<path
   fill="#CC0000"
   opacity="1.000000"
   stroke="none"
   d=" M148.996338,144.546021   C146.231705,145.342743 144.668213,144.481995 144.975723,141.342422   C145.147202,139.591431 144.997604,137.808990 144.979660,135.597229   C145.440399,134.816544 145.914154,134.479355 146.653687,134.015564   C147.612442,137.294357 148.305435,140.699738 148.996338,144.546021  z"
   id="path269" />
<path
   fill="#CC0000"
   opacity="1.000000"
   stroke="none"
   d=" M120.672226,117.057495   C121.070221,119.446449 121.014374,121.809547 120.905823,124.616280   C117.875633,125.037094 114.890152,125.129852 111.925301,124.924622   C110.973106,124.858711 110.075363,124.006294 109.152710,123.513710   C109.725060,122.686005 110.307343,121.864944 110.867264,121.028908   C111.585190,119.956963 112.285156,118.872971 112.989670,117.391541   C115.397102,117.003159 117.807739,117.017403 120.672226,117.057495  z"
   id="path271" />
<path
   fill="#CC0000"
   opacity="1.000000"
   stroke="none"
   d=" M105.444611,116.992996   C104.514030,116.404823 104.027878,115.820686 103.276581,115.118256   C103.497704,114.402313 103.983963,113.804672 104.732826,113.070724   C106.790916,112.962013 108.711121,112.611794 110.338425,113.148933   C111.438065,113.511909 112.125122,115.124825 113.003906,116.596092   C110.637085,117.008034 108.263062,117.002541 105.444611,116.992996  z"
   id="path273" />
<path
   fill="#CC0000"
   opacity="1.000000"
   stroke="none"
   d=" M153.349487,116.945572   C152.933624,115.858337 152.987015,114.797569 153.091370,113.340637   C157.303528,113.398018 161.464737,113.851562 165.827271,114.646759   C165.847504,115.555405 165.666412,116.122414 165.235962,116.863724   C161.263977,117.016045 157.541367,116.994049 153.349487,116.945572  z"
   id="path275" />
<path
   fill="#CC0000"
   opacity="1.000000"
   stroke="none"
   d=" M164.556793,125.007019   C165.099350,125.337997 165.289215,125.599380 165.793396,125.897667   C165.760056,126.800552 165.502686,127.600945 164.721283,128.705643   C163.130173,129.027283 162.063080,129.044617 160.996002,129.061951   C159.707520,128.269485 158.419022,127.477020 157.130539,126.684555   C158.473373,126.123291 159.779663,125.428131 161.171982,125.048180   C162.088455,124.798088 163.128876,125.002251 164.556793,125.007019  z"
   id="path277" />
<path
   fill="#FC0000"
   opacity="1.000000"
   stroke="none"
   d=" M160.997131,129.497620   C162.063080,129.044617 163.130173,129.027283 164.597229,129.001312   C164.997009,131.361694 164.996811,133.730728 164.990875,136.542450   C158.704132,137.434204 161.740326,132.615677 160.997131,129.497620  z"
   id="path279" />
<path
   fill="#FC0000"
   opacity="1.000000"
   stroke="none"
   d=" M157.002563,145.001221   C155.709152,144.372894 154.413162,143.743347 153.117157,143.113800   C153.682800,142.448822 154.248459,141.783829 154.814117,141.118835   C155.542023,142.148468 156.269913,143.178116 157.000122,144.606445   C157.002441,145.005142 157.000000,145.000000 157.002563,145.001221  z"
   id="path281" />
<path
   fill="#CC0000"
   opacity="1.000000"
   stroke="none"
   d=" M140.994553,104.400024   C139.946960,104.891846 138.900665,104.950546 137.462967,105.044937   C137.118378,102.661804 136.899429,100.197151 137.305786,97.840317   C137.575134,96.278145 138.320801,93.837944 140.888840,96.700165   C141.034195,99.324089 141.015030,101.645500 140.994553,104.400024  z"
   id="path283" />
<path
   fill="#CC0000"
   opacity="1.000000"
   stroke="none"
   d=" M132.939407,104.677094   C130.549973,104.453850 128.186005,103.774582 125.453590,103.110046   C123.810295,101.288651 122.535454,99.452530 121.121414,97.303101   C124.473938,96.746552 127.965660,96.503296 132.550293,96.183907   C132.660370,98.317886 132.812637,101.269470 132.939407,104.677094  z"
   id="path285" />
</svg>
